<svg width="24" height="24" viewBox="0 0 24 24" fill="none" xmlns="http://www.w3.org/2000/svg">
<path d="M15.0176 20.2793C15.2324 20.4941 15.5059 20.6113 15.8281 20.6113C16.4727 20.6113 16.9902 20.1035 16.9902 19.459C16.9902 19.1367 16.8535 18.8438 16.6289 18.6191L9.79297 11.9395L16.6289 5.2793C16.8535 5.05469 16.9902 4.75195 16.9902 4.43945C16.9902 3.79492 16.4727 3.28711 15.8281 3.28711C15.5059 3.28711 15.2324 3.4043 15.0176 3.61914L7.41992 11.041C7.14648 11.2949 7.01953 11.6074 7.00977 11.9492C7.00977 12.291 7.14648 12.584 7.41992 12.8477L15.0176 20.2793Z" fill="black"/>
</svg>
