<svg width="24" height="24" viewBox="0 0 24 24" fill="none" xmlns="http://www.w3.org/2000/svg">
<path d="M8.98242 20.2793C8.76758 20.4941 8.49414 20.6113 8.17188 20.6113C7.52734 20.6113 7.00977 20.1035 7.00977 19.459C7.00977 19.1367 7.14648 18.8438 7.37109 18.6191L14.207 11.9395L7.37109 5.2793C7.14648 5.05469 7.00977 4.75195 7.00977 4.43945C7.00977 3.79492 7.52734 3.28711 8.17188 3.28711C8.49414 3.28711 8.76758 3.4043 8.98242 3.61914L16.5801 11.041C16.8535 11.2949 16.9805 11.6074 16.9902 11.9492C16.9902 12.291 16.8535 12.584 16.5801 12.8477L8.98242 20.2793Z" fill="black"/>
</svg>
